<svg width="160" height="90" viewBox="0 0 160 90" fill="none" xmlns="http://www.w3.org/2000/svg">
<rect width="160" height="90" fill="white"/>
<path fill-rule="evenodd" clip-rule="evenodd" d="M107.878 29.4423H146.768V67.5576H107.878V29.4423Z" fill="#252422"/>
<path d="M107.878 29.4423H146.768V67.5576H107.878V29.4423Z" stroke="#2B2A29" stroke-width="4.05" stroke-miterlimit="10"/>
<path fill-rule="evenodd" clip-rule="evenodd" d="M107.805 34.3819V29.3686H117.868L107.805 34.3819Z" fill="#BF272E"/>
<path fill-rule="evenodd" clip-rule="evenodd" d="M114.329 44.1502C114.329 44.1502 115.066 44.9981 115.914 44.7032C116.762 44.4083 130.659 37.7731 130.659 37.7731C130.659 37.7731 131.47 37.5888 131.212 36.0775C128.853 37.1833 114.329 44.1502 114.329 44.1502Z" fill="#81727E"/>
<path fill-rule="evenodd" clip-rule="evenodd" d="M114.071 47.8734C114.182 47.5416 114.698 46.2514 117.057 45.1087C118.237 44.5558 120.301 43.7817 122.402 42.7864C126.015 41.1276 129.848 39.2108 130.18 39.1002C130.733 38.9159 132.134 38.9159 132.539 39.432C132.207 38.9159 130.991 38.5104 129.885 38.9527C129.222 39.2108 125.572 40.9802 122.218 42.5284C119.269 43.9291 116.578 45.1456 116.32 45.2562C115.804 45.4773 114.44 46.2883 114.071 47.8734C114.071 47.9102 114.071 47.9471 114.071 47.9471C114.071 47.9102 114.071 47.8734 114.071 47.8734ZM114.698 52.2968C114.735 52.3705 114.993 52.4074 114.993 52.4074C114.993 52.4074 115.877 52.5917 116.688 52.1862C117.278 51.8913 117.721 51.3015 117.942 51.0066C118.015 50.8592 117.979 50.8223 117.979 50.8223C117.979 50.8223 117.389 51.707 116.615 52.1125C115.841 52.4811 114.624 52.2968 114.624 52.2968C114.624 52.2968 114.661 52.2231 114.698 52.2968ZM114.956 52.9972C114.993 53.034 115.251 53.034 115.251 53.034C115.251 53.034 115.767 53.1078 116.43 52.776C117.02 52.4811 117.536 51.8913 117.536 51.8913C117.536 51.8913 117.02 52.4074 116.357 52.6654C115.73 52.8866 114.882 52.8866 114.882 52.8866C114.882 52.8866 114.919 52.9234 114.956 52.9972ZM118.089 49.7533C118.089 49.7533 117.831 50.5274 117.02 51.1909C116.394 51.7439 115.214 51.7439 115.214 51.7439C115.214 51.7439 115.251 51.8545 115.472 51.8545C115.656 51.8913 116.394 51.8913 117.057 51.3015C117.721 50.7117 117.979 50.1957 118.089 49.9008C118.126 49.7902 118.089 49.7533 118.089 49.7533ZM116.688 47.3941C117.241 47.0993 117.979 47.1361 117.979 47.1361L118.015 46.9518C118.015 46.9518 117.131 46.9149 116.615 47.2467C115.988 47.6522 115.693 48.4263 115.693 48.4263C115.693 48.4263 116.099 47.7259 116.688 47.3941ZM117.057 50.4537C117.057 50.4537 116.873 51.0066 116.062 51.2278C116.394 51.1172 116.652 50.7855 116.799 50.5643C116.91 50.4168 116.762 50.3431 116.762 50.3431C116.762 50.3431 116.615 50.9329 115.841 51.2647C115.804 51.2647 115.767 51.3015 115.73 51.3015C115.73 51.3015 116.541 51.449 117.057 50.7117C117.168 50.5643 117.057 50.4537 117.057 50.4537ZM116.615 48.242C116.578 48.2788 116.541 48.2788 116.504 48.3157C116.504 48.3157 116.615 48.4631 116.725 48.3894C116.91 48.2788 117.131 48.242 117.315 48.242C117.536 48.242 117.426 48.0208 117.426 48.0208C117.426 48.0208 116.946 48.0208 116.615 48.242ZM116.652 47.9102C116.725 47.8365 116.873 47.7628 116.983 47.7259C117.094 47.689 117.204 47.6522 117.315 47.6153C117.463 47.5785 117.352 47.4679 117.352 47.4679C117.352 47.4679 117.094 47.5047 116.836 47.6153C116.615 47.689 116.43 47.8734 116.43 47.8734C116.43 47.8734 116.504 47.9839 116.652 47.9102ZM116.136 50.2325C116.136 50.2325 116.615 50.4537 116.91 49.827C116.873 49.6427 116.762 49.6796 116.762 49.6796C116.762 49.6796 116.504 50.0113 116.209 49.9745C116.135 50.0482 116.099 50.1588 116.136 50.2325ZM116.172 48.9055C116.209 48.8318 116.32 48.6843 116.43 48.5737C116.578 48.4263 116.357 48.3894 116.357 48.3894C116.099 48.6475 115.951 48.9055 115.951 48.9055C115.951 48.9055 116.099 49.0529 116.172 48.9055ZM121.591 45.7722C121.591 45.7722 121.112 46.2146 117.721 46.2514C115.214 46.2883 114.735 49.4216 114.735 49.4216C114.735 49.4216 115.435 46.5095 117.721 46.4726C121.186 46.4357 121.591 45.7722 121.591 45.7722ZM119.601 47.5785C119.601 47.5785 119.637 47.6153 119.932 47.3573C120.19 47.0993 119.859 46.9518 119.674 47.1361C119.453 47.3573 119.342 47.6522 119.601 47.5785ZM127.747 41.1276C129.664 39.6163 131.286 39.9849 131.286 39.9849C131.286 39.9849 129.664 39.3951 127.747 40.9064C124.872 43.1919 123.471 44.482 118.2 45.3299C116.135 45.6616 114.993 47.4679 114.993 47.4679C114.993 47.4679 116.172 45.8091 118.273 45.4773C123.545 44.6664 124.872 43.413 127.747 41.1276ZM127.858 42.1597C129.48 40.5378 131.138 40.8696 131.138 40.8696C131.138 40.8696 129.48 40.2429 127.673 41.9754C125.167 44.3346 124.54 44.4452 124.54 44.4452C124.54 44.4452 125.462 44.5558 127.858 42.1597ZM126.531 44.1503C126.715 44.0766 126.494 44.0028 126.383 44.0028C126.383 44.0028 126.309 44.224 126.531 44.1503ZM126.531 46.3989C126.531 46.62 126.604 46.9149 126.604 46.9149C126.604 46.9149 127.084 46.9887 127.047 46.9149C127.01 46.8044 126.789 46.7306 126.715 46.3989C126.678 46.0303 126.531 46.1777 126.531 46.3989ZM127.747 43.0813C127.747 43.0813 128.558 42.1966 129.406 41.6805C129.848 41.4225 130.549 41.57 130.549 41.57V41.3856C130.549 41.3856 129.959 41.2013 129.295 41.5331C128.521 41.9386 127.71 42.897 127.71 42.897L127.747 43.0813ZM128.632 43.0813L128.521 42.9707C128.116 43.4499 128.005 44.1134 128.005 44.1134C128.005 44.1134 128.226 43.4868 128.632 43.0813ZM128.779 43.3762C128.779 43.3762 128.853 43.2656 128.963 43.155C129.074 43.0444 128.669 43.155 128.779 43.3762ZM130.512 45.1456C129.848 45.7722 128.705 45.8091 128.705 45.8091C128.705 45.8091 128.742 45.9197 128.927 45.9197C129.111 45.9565 129.811 45.9197 130.512 45.2562C131.249 44.5558 131.544 43.9291 131.691 43.5605C131.728 43.4131 131.691 43.3393 131.691 43.3393C131.691 43.3393 131.433 44.3346 130.512 45.1456ZM129.553 44.7401C130.032 44.7032 130.327 44.2609 130.512 44.0397C130.622 43.8923 130.475 43.8185 130.475 43.8185C130.475 43.8185 130.364 44.4083 129.553 44.7401ZM129.516 42.5652C129.811 42.4546 130.032 42.4546 130.032 42.4546V42.2703C130.032 42.2703 129.774 42.3072 129.443 42.4178L129.516 42.5652ZM129.111 45.293C129.111 45.293 129.922 45.4405 130.438 44.7032C130.549 44.5558 130.438 44.482 130.438 44.482C130.438 44.482 130.217 45.1456 129.111 45.293ZM129.848 44.1134C129.811 43.9291 129.701 43.966 129.701 43.966C129.701 43.966 129.443 44.2977 129.148 44.2609C129.074 44.2977 129.037 44.4083 129.074 44.5189C129.074 44.5189 129.516 44.7401 129.848 44.1134ZM128.521 46.3989C128.558 46.4726 128.779 46.4726 128.779 46.4726C128.779 46.4726 129.59 46.5463 130.401 46.0671C131.065 45.6616 131.691 44.8138 131.986 44.3715C132.134 44.1503 132.097 44.0766 132.097 44.0766C132.097 44.0766 131.212 45.3667 130.327 45.9197C129.59 46.3989 128.484 46.3251 128.484 46.3251C128.484 46.3251 128.484 46.3251 128.521 46.3989ZM129.037 46.9149C129.074 46.9518 129.222 46.9518 129.222 46.9518C129.222 46.9518 129.553 46.9887 129.996 46.8044C130.401 46.62 130.733 46.2146 130.733 46.2146C130.733 46.2146 130.401 46.5463 129.959 46.7306C129.553 46.8781 128.963 46.8781 128.963 46.8781C128.963 46.8781 129.037 46.8781 129.037 46.9149ZM126.346 46.7306C126.346 46.7306 125.83 46.7675 125.756 46.8412C125.683 46.8781 125.793 46.9887 125.793 46.9887C125.793 46.9887 125.978 46.9518 126.383 46.9149C126.42 46.8412 126.346 46.7306 126.346 46.7306ZM125.277 46.6938C125.314 46.2883 125.314 46.4357 125.13 46.5832C124.798 46.9149 125.093 47.1361 124.835 47.1361C124.835 47.1361 125.24 47.2098 125.314 47.1361C125.351 47.0992 125.24 47.0993 125.277 46.6938ZM124.54 47.2098C124.466 47.1361 124.208 46.8412 124.282 47.0624L124.466 47.2836C124.466 47.2836 124.614 47.2836 124.54 47.2098ZM123.95 47.3941C123.766 47.2098 123.803 47.2836 123.508 47.1361C123.508 47.1361 123.434 47.5785 123.545 47.5785C123.655 47.5785 124.098 47.5047 123.95 47.3941ZM123.029 47.4679C122.918 47.2836 122.771 47.3204 122.844 47.3941C122.844 47.3941 122.881 47.4679 122.955 47.5416C122.992 47.6522 123.139 47.6522 123.029 47.4679ZM125.425 50.7854C125.425 50.7854 127.194 50.8223 127.415 50.0851C126.862 50.38 126.236 50.6749 125.425 50.7854ZM126.862 49.9376C126.862 49.9376 127.194 49.9745 127.305 50.0482C127.378 50.1588 127.378 49.7533 126.862 49.9376ZM126.383 50.0851C126.383 50.0851 126.604 49.5321 126.862 49.4584C127.084 49.3478 126.457 49.4584 126.42 49.5321C126.383 49.6059 126.309 49.7533 126.383 50.0851ZM126.899 48.6843C126.899 48.4263 126.789 48.4263 126.825 48.2051C126.862 47.9839 126.678 47.8734 126.567 47.8734C126.42 47.8734 126.457 47.9102 126.457 47.9102C126.457 47.9102 126.678 47.9839 126.641 48.2051C126.641 48.2788 126.641 48.3894 126.641 48.4631C126.641 48.5 126.789 48.5737 126.789 48.6106C126.789 48.6475 126.678 48.7212 126.678 48.758C126.715 48.8686 126.715 48.9424 126.752 48.9424C126.936 48.9424 127.268 48.9055 127.268 48.8318C127.305 48.6843 126.862 48.9424 126.899 48.6843ZM124.982 48.0945C124.982 48.0945 124.761 48.0577 123.987 48.4263C123.913 48.4631 123.987 48.6106 123.987 48.6106C123.987 48.6106 124.798 48.2788 125.056 48.2788C125.314 48.2788 124.982 48.0945 124.982 48.0945ZM124.245 49.4953C124.208 49.3847 124.208 49.311 124.135 49.311C124.061 49.3478 124.061 49.4584 124.061 49.4584C124.061 49.4584 124.282 49.6059 124.245 49.4953ZM123.913 51.0066C123.913 51.0066 124.282 50.8223 124.503 50.5643C124.724 50.3062 124.208 50.7486 123.95 50.8592C123.729 50.9698 123.913 51.0066 123.913 51.0066ZM122.66 48.9792C122.586 49.0529 121.775 49.4584 121.849 49.9745C121.849 49.9745 122.144 49.2741 122.992 49.0161C123.397 48.8686 122.734 48.9055 122.66 48.9792ZM121.886 50.6011C121.849 50.638 122.033 50.6749 122.033 50.6011C122.033 50.5643 121.997 50.4168 121.96 50.4168C121.923 50.4168 121.849 50.4906 121.849 50.4906C121.849 50.4906 121.923 50.5643 121.886 50.6011ZM121.48 52.6286C121.222 52.6654 121.407 52.776 121.48 52.776C121.48 52.776 121.997 52.6285 122.07 52.3337C122.107 52.0756 121.739 52.5548 121.48 52.6286ZM121.075 54.656C121.075 54.656 121.628 54.8034 121.517 54.2873C121.444 53.7713 121.149 54.3611 121.075 54.656ZM121.149 53.1078C121.149 53.1078 121.186 53.4027 121.186 53.3289C121.259 53.2921 121.259 53.1815 121.149 53.1078ZM122.107 53.9187C122.107 53.9187 122.513 53.7713 122.549 53.587C122.586 53.3658 122.365 53.1078 122.181 53.2921C122.033 53.4395 121.775 53.9187 122.107 53.9187ZM122.771 51.8913C122.771 51.8913 124.208 51.8544 124.724 50.8592C124.946 50.4537 124.503 51.0803 123.877 51.4121C123.213 51.7439 122.402 51.8544 122.771 51.8913ZM123.287 53.2183C123.287 53.2183 123.729 52.7023 124.024 52.9234C124.319 53.1446 124.208 52.518 123.729 52.5917C123.213 52.6654 123.287 53.2183 123.287 53.2183ZM125.867 52.4074C125.867 52.4074 125.941 52.2231 125.72 52.1125C125.056 51.8544 124.909 52.5917 124.909 52.5917C125.314 52.1862 125.867 52.4074 125.867 52.4074ZM126.567 52.7391C126.789 51.8176 127.968 52.0019 127.968 52.0019C127.968 52.0019 127.526 51.2647 126.752 51.8545C126.531 52.0019 126.567 52.7391 126.567 52.7391ZM115.841 45.1824C118.015 44.0397 129.258 38.7316 130.327 38.3998C131.396 38.0681 134.382 37.8837 133.792 41.6068C133.203 45.0718 131.691 46.1408 131.691 46.1408C131.691 46.1408 129.664 48.3894 127.71 47.3941C128.263 47.7259 128.337 47.9839 128.411 48.1682C128.484 48.3157 128.484 48.6106 128.263 48.7949C128.411 48.8318 128.337 49.3478 128.337 49.6059C128.337 49.8639 128.705 49.5321 128.705 50.0113C128.705 50.1219 128.742 50.2694 128.742 50.2694C128.742 50.2694 129.111 50.896 129.627 50.9329C130.069 50.9698 130.954 50.9329 130.954 50.9329C130.954 50.9329 131.765 50.896 131.728 51.3752C131.728 51.8544 131.728 51.965 131.728 51.965C131.728 51.965 132.244 51.965 132.76 51.9282C133.276 51.8913 133.571 52.0388 133.682 52.6286C133.977 52.5548 134.05 52.8497 134.05 53.1078V53.587C134.05 53.587 133.977 54.5822 134.677 53.7344C135.156 53.1815 135.377 54.2136 135.341 54.5822C135.341 54.8403 135.635 56.9783 135.709 55.9093C135.783 55.0246 135.967 54.5085 135.967 55.1352C135.967 55.725 136.741 67.742 136.741 67.742H120.67L121.038 54.0662L120.854 54.2505C120.854 54.2505 120.706 54.103 120.964 53.7344C121.001 53.5132 120.854 53.5501 120.854 53.5501C120.854 53.5501 120.743 52.9972 120.928 52.9234C121.112 52.8497 120.964 52.7023 120.891 52.7023C120.854 52.7023 120.743 52.0019 120.964 52.0019C121.149 52.0019 121.001 51.8545 120.964 51.8545C120.928 51.8545 120.817 51.3752 121.001 51.3384C121.186 51.3384 121.554 51.6701 121.333 51.8176C121.296 52.0019 121.333 51.965 121.48 51.9282C121.591 51.8913 121.628 51.8913 121.48 51.7439C121.48 51.449 121.37 51.2647 121.186 51.1909C120.891 51.0803 121.259 50.6749 121.259 50.6749C121.259 50.6749 121.407 50.0482 121.112 50.2325C121.001 50.3062 120.964 50.2694 120.928 50.1957C121.259 49.8639 122.513 48.758 123.95 48.1682C125.683 47.431 127.747 47.3941 127.747 47.3941L127.71 47.3204C127.71 47.3204 125.646 47.3573 123.913 48.0945C122.513 48.6843 121.296 49.7165 120.928 50.0851C120.928 49.9745 121.001 49.7902 121.075 49.6796C121.222 49.3847 121.775 48.758 122.771 48.1682C123.139 47.9471 122.586 47.9471 122.586 47.9471C122.586 47.9471 122.439 48.4631 121.997 48.2051C121.997 48.5 121.812 48.6106 121.517 48.5369C121.628 48.758 121.48 49.0161 121.222 48.9424C121.296 49.2004 121.112 49.3478 120.743 49.311C120.338 49.2741 120.153 48.9424 120.522 48.4631C120.706 48.242 120.891 47.7259 122.218 46.9887C122.255 46.9518 122.255 46.8412 122.328 46.8044C122.439 46.7675 122.476 46.8044 122.549 46.8044C122.623 46.7675 122.549 46.6569 122.734 46.62C122.881 46.5463 122.918 46.6569 123.029 46.62C123.102 46.5832 123.029 46.4726 123.213 46.4357C123.36 46.3989 123.397 46.5095 123.508 46.4726C123.582 46.4357 123.582 46.2883 123.766 46.2514C123.913 46.2146 123.987 46.2883 124.135 46.2514C124.245 46.2146 124.171 46.0303 124.429 45.9934C124.651 45.9565 124.761 46.0671 124.835 46.0671C124.946 46.0303 124.872 45.8828 125.167 45.7722C125.462 45.6985 125.535 45.9197 125.683 45.8828C125.83 45.8459 125.72 45.6248 126.051 45.5879C126.309 45.551 126.346 45.7354 126.494 45.7354C126.567 45.6616 126.604 45.6616 126.604 45.6616C126.604 45.6616 126.494 45.1824 126.604 44.8507C126.383 44.8875 126.162 45.1087 125.941 45.1456C125.756 45.1824 125.572 45.035 125.388 45.1087C125.24 45.1456 125.093 45.2561 124.946 45.293C124.798 45.3299 124.651 45.2562 124.466 45.3299C124.319 45.3667 124.171 45.4773 124.061 45.5142C123.95 45.551 123.84 45.5142 123.692 45.551C123.618 45.5879 123.545 45.6985 123.471 45.7354C123.397 45.7722 123.25 45.7354 123.176 45.7722C123.102 45.8091 123.066 45.8828 122.992 45.9197C122.918 45.9565 122.808 45.9197 122.734 45.9565C121.591 46.4726 120.559 47.0993 119.822 48.1682C119.637 48.3526 119.453 48.5737 119.453 48.5737C119.453 48.5737 119.416 53.1446 115.103 53.7713C112.191 54.2136 112.892 50.0113 112.965 49.5321C112.965 48.9792 113.629 46.362 115.841 45.1824ZM131.065 36.483C131.212 36.741 131.323 36.741 130.991 36.8516C130.88 36.8885 130.843 36.9253 130.807 36.9622L130.77 36.9253C130.475 36.7779 130.475 37.1465 130.364 37.2202C130.327 37.2202 130.291 37.2571 130.217 37.2202C130.401 37.4414 130.549 37.6994 130.327 37.81C129.996 37.9206 129.959 37.5151 129.774 37.4045C129.48 37.2571 129.48 37.6626 129.369 37.6994C129.332 37.6994 129.295 37.7363 129.258 37.6994C129.443 37.9206 129.59 38.2155 129.369 38.2892C129.037 38.3998 129 37.9943 128.816 37.8837C128.558 37.7363 128.558 38.1418 128.411 38.1786C128.374 38.1786 128.337 38.2155 128.263 38.1786C128.447 38.3998 128.595 38.6579 128.374 38.7684C128.042 38.879 128.005 38.4735 127.821 38.363C127.563 38.2155 127.563 38.5841 127.415 38.6579C127.378 38.6579 127.342 38.6947 127.305 38.6579C127.489 38.879 127.636 39.1739 127.415 39.2476C127.084 39.3582 127.047 38.9527 126.862 38.8422C126.678 38.7316 126.604 38.879 126.567 39.0265C126.752 39.2845 126.973 39.5794 126.715 39.6531C126.383 39.7637 126.346 39.3582 126.162 39.2476C125.904 39.1002 125.904 39.5057 125.756 39.5425C125.72 39.5425 125.683 39.5794 125.609 39.5425C125.793 39.7637 125.941 40.0217 125.72 40.1323C125.388 40.2429 125.351 39.8374 125.167 39.7268C124.909 39.5794 124.909 39.948 124.761 40.0217C124.724 40.0217 124.687 40.0586 124.651 40.0217C124.835 40.2429 124.982 40.501 124.761 40.6115C124.429 40.7221 124.393 40.3166 124.208 40.2061C123.95 40.0586 123.95 40.4272 123.803 40.501C123.766 40.501 123.729 40.501 123.655 40.501C123.84 40.7221 123.987 40.9802 123.766 41.0907C123.434 41.2013 123.397 40.7958 123.213 40.6853C122.918 40.5378 122.918 40.9433 122.808 40.9802C122.771 40.9802 122.734 41.017 122.66 40.9802C122.844 41.2013 122.992 41.4594 122.771 41.57C122.439 41.6805 122.402 41.2751 122.218 41.1645C121.96 41.017 121.96 41.4225 121.812 41.4594C121.775 41.4594 121.739 41.4962 121.702 41.4594C121.886 41.6805 122.033 41.9386 121.812 42.0492C121.48 42.1597 121.444 41.7543 121.259 41.6437C121.001 41.4962 121.001 41.9017 120.854 41.9386C120.817 41.9386 120.817 41.9386 120.78 41.9386C120.964 42.1597 121.112 42.4546 120.891 42.5284C120.559 42.6389 120.522 42.2335 120.338 42.1229C120.08 41.9754 120.08 42.3441 119.932 42.4178C119.895 42.4178 119.859 42.4546 119.785 42.4178C119.969 42.6389 120.117 42.897 119.895 43.0076C119.564 43.1182 119.527 42.7127 119.342 42.6021C119.084 42.4546 119.084 42.8233 118.937 42.897C118.9 42.897 118.863 42.9338 118.826 42.897C119.011 43.1182 119.158 43.3762 118.937 43.4868C118.605 43.5974 118.568 43.1919 118.384 43.0813C118.126 42.9338 118.126 43.3393 117.979 43.3762C117.942 43.3762 117.905 43.4131 117.868 43.3762C118.052 43.5974 118.2 43.8923 117.979 43.966C117.647 44.0766 117.647 43.6711 117.426 43.5605C117.168 43.4131 117.168 43.8185 117.02 43.8554C116.983 43.8554 116.946 43.8554 116.91 43.8554C117.094 44.0766 117.241 44.3715 117.02 44.4452C116.688 44.5558 116.652 44.1503 116.467 44.0397C116.209 43.8923 116.209 44.2977 116.062 44.3346C116.025 44.3346 115.988 44.3715 115.914 44.3346C116.099 44.5558 116.246 44.8138 116.025 44.9244C115.693 45.035 115.656 44.6295 115.472 44.5189C115.177 44.3715 115.177 44.7401 115.066 44.8138C114.993 44.8507 114.882 44.8507 114.698 44.4452C114.698 44.4452 115.472 43.8923 115.73 44.0397C115.73 44.0028 115.73 44.0028 115.693 43.966C115.693 43.966 116.467 43.4131 116.725 43.5605C116.725 43.5236 116.725 43.5236 116.688 43.5236C116.688 43.5236 117.463 42.9707 117.721 43.1182C117.721 43.0813 117.721 43.0813 117.684 43.0813C117.684 43.0813 118.458 42.5284 118.716 42.6758C118.716 42.6389 118.716 42.6389 118.679 42.6389C118.679 42.6389 119.453 42.086 119.711 42.2335C119.711 42.1966 119.711 42.1966 119.674 42.1966C119.674 42.1966 120.338 41.7174 120.633 41.7911C120.633 41.7543 120.633 41.7543 120.596 41.7174C120.596 41.7174 121.37 41.1645 121.628 41.3119C121.628 41.2751 121.628 41.2751 121.591 41.2751C121.591 41.2751 122.365 40.7221 122.623 40.8696C122.623 40.8327 122.623 40.8327 122.586 40.8327C122.586 40.8327 123.36 40.2798 123.618 40.4272C123.618 40.4272 123.618 40.3904 123.582 40.3904C123.582 40.3904 124.356 39.8374 124.614 39.9849C124.614 39.948 124.614 39.948 124.577 39.948C124.577 39.948 125.351 39.3951 125.609 39.5425C125.609 39.5057 125.572 39.5057 125.572 39.5057C125.572 39.5057 125.978 39.2108 126.309 39.1002C126.309 39.1002 127.084 38.5473 127.342 38.6947C127.342 38.6579 127.305 38.6579 127.305 38.621C127.305 38.621 128.079 38.0681 128.337 38.2155C128.337 38.1786 128.3 38.1786 128.3 38.1786C128.3 38.1786 129.074 37.6257 129.332 37.7732C129.332 37.7363 129.332 37.7363 129.295 37.7363C129.295 37.7363 130.069 37.1834 130.327 37.3308C130.327 37.3308 130.327 37.294 130.291 37.294C129.996 36.8148 130.88 36.1881 131.065 36.483ZM107.805 34.4556L117.942 29.3686H118.384L107.842 34.6399V34.4556H107.805ZM107.805 35.1191L119.232 29.3686H120.338L107.805 35.672V35.1191ZM107.805 36.1512L121.222 29.3686H121.812L107.805 36.4461V36.1512ZM107.805 36.6673L122.255 29.3686H122.955L107.805 36.9991V36.6673ZM107.805 38.1418L125.167 29.3686H125.978L107.805 38.5473V38.1418ZM107.805 39.1371L127.563 29.3686H132.871L107.805 41.6437V39.1371ZM107.805 41.8648L133.35 29.3686H138.179L107.842 44.224V41.8648H107.805ZM107.805 47.0624V44.4452L138.695 29.3318H145.035L107.805 47.0624Z" fill="#FEFEFE"/>
<path fill-rule="evenodd" clip-rule="evenodd" d="M135.34 54.2137L135.525 54.1768C135.525 54.1768 136.667 66.7099 136.446 67.226C136.299 67.5209 136.041 67.6314 135.93 67.6683H135.893L135.34 54.2137ZM129.811 51.6702C129.848 51.8545 129.848 52.002 129.848 52.002C129.848 52.002 128.742 51.7808 128.705 52.2231C128.668 52.6655 129.258 67.0048 129.221 67.226C129.221 67.5209 129.037 67.6314 128.889 67.6314H128.705L128.484 51.9282C128.521 51.9651 128.816 51.0804 129.811 51.6702ZM134.087 53.6976L134.271 53.7345C134.271 53.7345 135.525 66.6362 135.34 67.226C135.23 67.5209 135.008 67.6314 134.861 67.7052H134.677L134.087 53.6976ZM132.465 52.9604C132.465 52.9604 132.465 51.7439 133.239 52.4443C132.723 52.2969 132.649 52.7023 132.649 52.9235C132.649 53.1447 133.792 66.5993 133.534 67.2628C133.46 67.484 133.313 67.5946 133.202 67.6314H132.907L132.465 52.9604ZM130.585 52.4812C130.585 52.4812 130.622 51.449 131.617 51.9651C131.064 52.0388 130.769 52.0388 130.806 52.6655C130.843 53.2921 131.617 66.3044 131.58 66.9311C131.543 67.3734 131.322 67.5577 131.138 67.6314H130.843L130.585 52.4812Z" fill="#E0DCDF"/>
<path fill-rule="evenodd" clip-rule="evenodd" d="M135.34 54.2136L135.525 54.1768C135.525 54.1768 136.446 66.415 136.225 66.931C136.078 67.2628 135.893 67.5945 135.857 67.6683L135.34 54.2136ZM129.811 51.6702C129.848 51.8545 129.848 52.0019 129.848 52.0019C129.848 52.0019 128.742 51.7807 128.705 52.2231C128.668 52.6654 129 66.8204 129 67.0416C129 67.4471 128.816 67.5945 128.779 67.6683H128.742L128.521 51.965C128.521 51.965 128.816 51.0804 129.811 51.6702ZM134.087 53.6976L134.271 53.7344C134.271 53.7344 135.267 66.3781 135.046 66.9679C134.898 67.3734 134.751 67.5945 134.714 67.7051L134.087 53.6976ZM132.465 52.9603C132.465 52.9603 132.465 51.7439 133.239 52.4443C132.723 52.2968 132.65 52.7023 132.65 52.9235C132.65 53.1446 133.497 66.3044 133.202 67.0047C133.055 67.3365 132.944 67.5577 132.871 67.6683H132.834L132.465 52.9603ZM130.585 52.4811C130.585 52.4811 130.622 51.449 131.617 51.965C131.064 52.0388 130.77 52.0388 130.806 52.6654C130.843 53.2921 131.396 66.2306 131.359 66.8573C131.359 67.3365 131.138 67.5577 130.991 67.6683H130.843L130.585 52.4811Z" fill="#ADA8AD"/>
<path fill-rule="evenodd" clip-rule="evenodd" d="M128.226 47.5785C128.042 47.5416 127.857 47.4679 127.673 47.3573L127.636 47.3204C127.747 47.431 127.968 47.5047 128.226 47.5785ZM135.635 55.6881C135.709 54.8034 136.041 54.5085 136.041 55.0983C136.041 55.2826 136.114 56.6834 136.225 58.4896C135.967 58.4896 135.709 58.4896 135.562 58.379C135.377 58.2316 135.451 56.5359 135.451 56.5359C135.451 56.5359 134.824 56.5359 134.493 56.3885C134.124 56.241 134.235 54.7666 134.124 54.7666C134.013 54.7297 133.202 54.9509 132.76 54.7297C132.428 54.5822 132.428 53.3289 132.428 53.3289C132.428 53.3289 132.944 53.3289 131.986 53.3289C130.548 53.3289 130.769 52.3337 130.696 52.0019C130.585 51.6701 130.106 51.5227 129.664 51.2278C129.258 50.9698 128.89 50.8223 128.742 50.5274C128.631 50.2694 128.521 50.0851 128.263 50.0851C128.005 50.0851 127.968 49.7533 127.931 49.4584C127.894 49.1635 127.489 48.5 127.452 48.2051C127.415 47.9102 127.341 47.2098 127.341 47.2098C127.341 47.2098 127.452 47.2467 127.599 47.3204C127.636 47.3204 127.636 47.3573 127.673 47.3573C128.226 47.689 128.3 47.9471 128.373 48.1314C128.447 48.2788 128.521 48.5737 128.3 48.758C128.447 48.7949 128.373 49.2741 128.373 49.5321C128.373 49.7902 128.742 49.4216 128.742 49.9376C128.742 50.0482 128.779 50.2325 128.779 50.2325C128.779 50.2325 129.148 50.7486 129.627 50.7855C130.069 50.8223 130.88 50.8223 130.88 50.8223C130.88 50.8223 131.728 50.7855 131.728 51.3015C131.728 51.7807 131.765 51.8913 131.765 51.8913C131.765 51.8913 132.207 51.965 132.723 51.9282C133.239 51.8913 133.571 51.965 133.682 52.518C133.976 52.4442 134.124 52.8129 134.124 53.034C134.124 53.2552 134.087 53.5132 134.087 53.5132C134.087 53.5132 133.903 54.4348 134.64 53.6238C135.119 53.0709 135.377 54.1399 135.34 54.5085C135.34 54.7297 135.525 56.7571 135.635 55.6881Z" fill="#8F858C"/>
<path fill-rule="evenodd" clip-rule="evenodd" d="M127.968 47.6153C128.521 47.9471 128.373 47.8734 128.447 48.0577C128.521 48.2051 128.816 48.5 128.595 48.6843C128.742 48.7212 128.41 49.2004 128.41 49.4584C128.41 49.7165 128.816 49.3847 128.816 49.8639C128.816 49.9745 128.779 50.0851 128.779 50.0851C128.779 50.0851 129.111 50.6011 129.627 50.638C130.069 50.6749 130.88 50.6011 130.88 50.6011C130.88 50.6011 131.838 50.6011 131.838 51.1172C131.838 51.5964 131.875 51.7439 131.875 51.7439C131.875 51.7439 132.207 51.7807 132.723 51.7807C133.239 51.7439 133.645 51.8176 133.755 52.3705C134.05 52.2968 134.198 52.7023 134.198 52.9603C134.198 53.2183 134.198 53.4027 134.198 53.4027C134.198 53.4027 134.198 53.845 134.677 53.4764C135.119 53.1446 135.23 53.6607 135.34 54.0662C135.119 53.845 134.787 53.6975 134.64 53.845C134.456 54.0293 133.94 54.1768 133.903 53.8819C133.866 53.5501 133.866 52.9603 133.755 52.7391C133.645 52.4811 132.576 52.518 132.17 52.2599C131.765 52.0019 130.843 52.1493 130.843 51.8913C130.843 51.6333 129.553 51.1909 129.148 50.896C128.742 50.6011 128.668 50.3431 128.152 49.6059C127.636 48.8318 127.415 47.5047 127.415 47.5047C127.415 47.5047 127.784 47.5785 127.71 47.5416L127.968 47.6153Z" fill="#4A4247"/>
<path fill-rule="evenodd" clip-rule="evenodd" d="M134.788 67.6683H134.64L134.087 53.6976L134.272 53.7344L134.788 67.6683ZM132.871 67.6683L132.465 52.9603C132.465 52.9603 132.465 51.7439 133.239 52.4443C132.723 52.2968 132.65 52.7023 132.65 52.9235C132.65 53.1446 132.944 65.7146 133.018 67.6314L132.871 67.6683ZM130.991 67.6683H130.806L130.622 52.4811C130.622 52.4811 130.659 51.449 131.654 51.965C131.101 52.0388 130.806 52.0388 130.843 52.6654C130.843 53.2552 130.954 65.862 130.991 67.6683ZM128.668 67.6683L128.521 51.965C128.521 51.965 128.816 51.1172 129.811 51.6702C129.848 51.8545 129.848 52.0019 129.848 52.0019C129.848 52.0019 128.742 51.7807 128.705 52.2231C128.668 52.6286 128.853 65.604 128.853 67.6683H128.668ZM124.024 51.8545C124.466 51.8176 126.309 51.2278 126.604 51.2647C126.862 51.2647 127.157 51.1172 127.526 51.1909C127.931 51.2647 128.447 51.0435 128.853 51.0435C129.258 51.0435 130.29 50.7117 130.29 50.7117C130.29 50.7117 130.18 51.0435 129.811 51.0435C129.443 51.0435 128.89 51.2647 128.668 51.1909C128.484 51.1172 127.968 51.4121 127.71 51.3015C127.452 51.2278 127.452 51.3015 126.641 51.3753C125.83 51.449 124.687 52.0019 124.687 52.0019C124.687 52.0019 124.282 51.8176 123.397 52.1862C122.513 52.518 120.927 54.3242 120.927 54.3242C120.927 54.3242 120.854 54.2505 120.743 54.2136C122.918 51.8913 123.582 51.8913 124.024 51.8545ZM124.503 67.6683L124.577 66.3044L124.614 67.6683H124.503ZM126.457 67.6683L126.494 61.6966L126.641 67.6683H126.457ZM128.042 50.5643C127.636 50.4168 128.374 50.38 129.221 50.6012C129.185 50.6012 128.447 50.7117 128.042 50.5643ZM135.82 67.6683L135.304 54.2136L135.488 54.1768L135.967 67.6683H135.82Z" fill="#484344"/>
<path fill-rule="evenodd" clip-rule="evenodd" d="M130.807 52.8129C130.807 52.8129 130.659 52.4074 130.917 52.0019C131.286 51.449 132.023 51.8544 132.244 52.2599C131.323 52.1862 130.807 52.8129 130.807 52.8129ZM132.613 53.9556C132.613 53.9556 132.429 52.4442 132.981 52.3336C133.571 52.2231 133.829 52.776 133.792 52.9972C133.461 52.9603 132.65 53.5132 132.613 53.9556ZM134.382 54.8403C134.382 54.8403 134.05 52.9972 135.23 53.6238C134.898 53.7713 134.419 54.2136 134.382 54.8403ZM135.562 55.9461C135.562 55.9461 135.23 54.4348 135.967 54.6191C135.82 55.0983 135.672 55.5406 135.562 55.9461Z" fill="#625563"/>
<path fill-rule="evenodd" clip-rule="evenodd" d="M135.82 46.0671C135.672 45.8828 135.672 44.7401 135.709 44.3715C135.746 43.966 135.377 43.6711 135.377 43.6711C135.34 43.6343 135.267 43.5974 135.193 43.5237C135.193 43.7448 135.156 43.966 135.193 44.1135C135.267 44.8138 134.529 46.104 134.677 44.4452C134.751 43.4499 134.198 42.6758 134.198 42.6758C134.05 42.5653 133.792 41.828 134.566 42.1229C135.046 42.3072 135.156 42.7864 135.156 43.2656C135.23 43.2656 135.34 43.2656 135.451 43.2656C136.52 43.3762 136.409 44.4084 136.373 45.035C136.409 45.6617 135.967 46.2515 135.82 46.0671ZM137.257 46.915C136.999 47.0624 137.036 46.4358 137.11 46.104C137.184 45.7723 136.962 45.3668 136.962 45.3668C136.962 45.2562 137.036 45.1825 137.294 45.2562C137.552 45.3299 137.7 45.9934 137.626 46.1777C137.515 46.362 137.589 46.7307 137.257 46.915ZM138.363 48.2789C138.4 47.9471 138.253 47.4679 138.253 47.4679C138.805 47.173 138.474 48.2051 138.363 48.2789ZM140.132 53.7713C140.317 53.587 140.391 53.0709 140.391 53.0709C140.391 53.0709 141.275 52.7392 142.27 52.2968C142.086 52.9235 139.911 53.9556 140.132 53.7713Z" fill="#CCC1CD"/>
<path fill-rule="evenodd" clip-rule="evenodd" d="M56.8242 60.8488V58.7477H54.723C54.3913 59.1531 54.2438 59.5955 54.2438 60.0747C54.2438 61.1437 54.7599 61.6966 55.8289 61.6966C56.3081 61.6966 56.6398 61.6229 56.8979 61.4386C56.861 61.2911 56.8242 61.1068 56.8242 60.8488ZM57.3034 62.2127C56.7873 62.4707 56.1975 62.5813 55.4971 62.5813C54.7967 62.5813 54.2069 62.3601 53.8383 61.9547C53.4328 61.5492 53.2485 60.9225 53.2485 60.1484C53.2485 59.7429 53.3223 59.4112 53.4328 59.1163C53.5434 58.8214 53.7646 58.5265 54.0964 58.1947C53.6172 57.7155 53.3591 57.1995 53.3591 56.6834C53.3591 56.1673 53.5803 55.725 53.9489 55.3195C54.3544 54.9509 54.8705 54.7666 55.534 54.7666C56.2344 54.7666 56.7873 54.914 57.1928 55.2458L56.7504 56.0567C56.3449 55.725 56.0132 55.5775 55.6814 55.5775C54.7599 55.5775 54.3175 55.983 54.3175 56.8308C54.3175 57.2732 54.5387 57.6418 54.9073 57.9736H56.8242V57.0151L57.8194 56.6465V57.9736H59.1096V58.8214H57.8194V60.517C57.8194 60.9962 57.8931 61.328 58.0037 61.4754C58.1143 61.6598 58.3355 61.7335 58.6673 61.7335C58.8516 61.7335 59.0727 61.6598 59.3308 61.5492L59.4782 62.4707C59.1096 62.5813 58.7041 62.6182 58.2249 62.6182C57.8932 62.5813 57.5983 62.4707 57.3034 62.2127Z" fill="#161D3F"/>
<path d="M63.312 39.5426V32.2808H64.3073V38.5842H67.8092V39.5426H63.312Z" fill="#161D3F"/>
<path d="M70.7949 34.8611C69.7259 34.8611 69.173 35.672 69.173 36.8516C69.173 37.9943 69.7997 38.8422 70.8318 38.8422C71.9008 38.8422 72.4537 38.0312 72.4537 36.8885C72.4537 35.7457 71.8271 34.8611 70.7949 34.8611ZM70.7581 39.69C69.2467 39.69 68.1777 38.5841 68.1777 36.8516C68.1777 35.156 69.2836 34.0132 70.7949 34.0132C72.3063 34.0132 73.3384 35.156 73.3384 36.8516C73.3753 38.5841 72.2694 39.69 70.7581 39.69Z" fill="#161D3F"/>
<path d="M77.8354 39.5425V36.1881C77.8354 35.2666 77.5036 34.9717 76.7295 34.9717C76.1766 34.9717 75.6237 35.2666 75.3288 35.5614V39.5425H74.4072V34.1976L75.3656 34.0501V34.8611C75.8448 34.3819 76.4715 34.0501 77.0982 34.0501C78.1672 34.0501 78.8307 34.7505 78.8307 35.8932V39.5425H77.8354Z" fill="#161D3F"/>
<path d="M82.4431 34.8979C81.3741 34.8979 80.7475 35.7826 80.7475 36.8885C80.7475 38.0681 81.3373 38.8422 82.3325 38.8422C82.8486 38.8422 83.2541 38.6579 83.6227 38.3261V35.3034C83.3278 35.0085 82.9223 34.8979 82.4431 34.8979ZM83.6227 31.6909L84.5811 31.5435V39.5057H83.6227V39.0265C83.2541 39.3951 82.7749 39.69 82.1482 39.69C80.6369 39.69 79.7891 38.4735 79.7891 36.8885C79.7891 35.2666 80.8949 34.0132 82.5168 34.0132C82.8855 34.0132 83.3278 34.087 83.6596 34.1976L83.6227 31.6909Z" fill="#161D3F"/>
<path d="M88.157 34.8611C87.088 34.8611 86.5351 35.672 86.5351 36.8516C86.5351 37.9943 87.1617 38.8422 88.1939 38.8422C89.2629 38.8422 89.8158 38.0312 89.8158 36.8885C89.8158 35.7457 89.226 34.8611 88.157 34.8611ZM88.157 39.69C86.6457 39.69 85.5767 38.5841 85.5767 36.8516C85.5767 35.156 86.6825 34.0132 88.1939 34.0132C89.7052 34.0132 90.7373 35.156 90.7373 36.8516C90.7742 38.5841 89.6683 39.69 88.157 39.69Z" fill="#161D3F"/>
<path d="M95.2346 39.5425V36.1881C95.2346 35.2666 94.9028 34.9717 94.1287 34.9717C93.5758 34.9717 93.0228 35.2666 92.7279 35.5614V39.5425H91.7695V34.1976L92.7279 34.0501V34.8611C93.2071 34.3819 93.8338 34.0501 94.4605 34.0501C95.5295 34.0501 96.193 34.7505 96.193 35.8932V39.5425H95.2346Z" fill="#161D3F"/>
<path d="M15.9811 49.2004C15.9811 48.4631 15.4282 48.1682 14.2486 47.8733C13.2164 47.5784 12.0737 47.173 12.0737 45.7353C12.0737 44.5189 13.069 43.7079 14.5066 43.7079C15.3544 43.7079 16.0917 43.9291 16.7921 44.3346L16.4603 45.1824C15.9074 44.8138 15.1701 44.5926 14.5435 44.5926C13.5113 44.5926 13.069 45.0718 13.069 45.6616C13.069 46.3989 13.6957 46.6569 14.8384 46.9518C15.9074 47.2467 16.9764 47.7259 16.9764 49.1266C16.9764 50.38 15.9442 51.3015 14.4329 51.3015C13.5851 51.3015 12.7004 51.0435 12 50.6011L12.3318 49.7164C12.8847 50.1219 13.5482 50.4168 14.396 50.4168C15.3176 50.4168 15.9811 49.9376 15.9811 49.2004Z" fill="#161D3F"/>
<path d="M20.4043 51.3015C18.7087 51.3015 17.7871 50.1588 17.7871 48.4631C17.7871 46.7675 18.893 45.6248 20.478 45.6248C21.1784 45.6248 21.6945 45.7722 22.2105 46.0671L21.9525 46.9518C21.5102 46.6569 21.031 46.5095 20.478 46.5095C19.3722 46.5095 18.7824 47.2467 18.7824 48.4631C18.7824 49.6796 19.4459 50.4168 20.4412 50.4168C20.9941 50.4168 21.547 50.2694 21.9894 49.9745L22.1737 50.8592C21.6945 51.1541 21.0678 51.3015 20.4043 51.3015Z" fill="#161D3F"/>
<path d="M26.7817 51.1172V47.7628C26.7817 46.8412 26.4131 46.5463 25.7495 46.5463C25.1229 46.5463 24.6068 46.8412 24.3119 47.1361V51.1172H23.3535V43.3025L24.3119 43.155V46.4357C24.7911 45.9565 25.4178 45.6616 26.1182 45.6616C27.1503 45.6616 27.777 46.362 27.777 47.5047V51.1541L26.7817 51.1172Z" fill="#161D3F"/>
<path d="M31.4634 46.4726C30.3944 46.4726 29.8415 47.2836 29.8415 48.4631C29.8415 49.6059 30.4681 50.4537 31.5003 50.4537C32.5693 50.4537 33.1222 49.6427 33.1222 48.5C33.1222 47.3573 32.4955 46.4726 31.4634 46.4726ZM31.4265 51.3015C29.9152 51.3015 28.8462 50.1957 28.8462 48.4631C28.8462 46.7675 29.9521 45.6248 31.4634 45.6248C32.9747 45.6248 34.0069 46.7675 34.0069 48.4631C34.0437 50.1957 32.9379 51.3015 31.4265 51.3015Z" fill="#161D3F"/>
<path d="M37.4715 46.4726C36.4025 46.4726 35.8495 47.2836 35.8495 48.4631C35.8495 49.6059 36.4762 50.4537 37.5083 50.4537C38.5773 50.4537 39.1302 49.6427 39.1302 48.5C39.1302 47.3573 38.5036 46.4726 37.4715 46.4726ZM37.4715 51.3015C35.9601 51.3015 34.8911 50.1957 34.8911 48.4631C34.8911 46.7675 35.997 45.6248 37.5083 45.6248C39.0197 45.6248 40.0518 46.7675 40.0518 48.4631C40.0518 50.1957 38.9459 51.3015 37.4715 51.3015Z" fill="#161D3F"/>
<path d="M41.2686 51.1172V43.3025L42.1901 43.155V51.1172H41.2686Z" fill="#161D3F"/>
<path d="M47.9036 46.4726C46.8346 46.4726 46.2817 47.2836 46.2817 48.4631C46.2817 49.6059 46.9083 50.4537 47.9404 50.4537C49.0094 50.4537 49.5624 49.6427 49.5624 48.5C49.5992 47.3573 48.9726 46.4726 47.9036 46.4726ZM47.9036 51.3015C46.3922 51.3015 45.3232 50.1957 45.3232 48.4631C45.3232 46.7675 46.4291 45.6248 47.9404 45.6248C49.4518 45.6248 50.4839 46.7675 50.4839 48.4631C50.5208 50.1957 49.4149 51.3015 47.9036 51.3015Z" fill="#161D3F"/>
<path d="M54.5019 44.1871C54.2439 44.0766 53.9121 43.966 53.6541 43.966C53.138 43.966 52.88 44.2977 52.88 45.1087V45.8459H54.5756L54.5388 46.6938H52.88V51.1541H51.9216V46.6938L51 46.62L51.0369 46.0302L51.9216 45.7722V45.1087C51.9584 43.6342 52.6219 43.0813 53.6909 43.0813C54.0964 43.0813 54.5019 43.2287 54.7599 43.3393C54.7231 43.3393 54.5019 44.1871 54.5019 44.1871Z" fill="#161D3F"/>
<path d="M60.2891 47.9471H58.8515V50.2326H60.4365C61.5055 50.2326 62.0585 49.8271 62.0585 49.0898C62.0585 48.242 61.3212 47.9471 60.2891 47.9471ZM60.3628 44.777H58.8515V47.0624H60.2154C61.2475 47.0624 61.8373 46.5832 61.8373 45.8829C61.8373 45.1825 61.3212 44.777 60.3628 44.777ZM63.0537 49.0898C63.0537 50.3063 62.2428 51.1541 60.3628 51.1541H57.8931V43.8923H60.2891C62.0585 43.8923 62.8326 44.6664 62.8326 45.8091C62.8326 46.5464 62.3902 47.0993 61.5793 47.3942C62.5377 47.6522 63.0537 48.2789 63.0537 49.0898Z" fill="#161D3F"/>
<path d="M65.1549 45.809V49.1635C65.1549 50.085 65.4867 50.3799 66.1871 50.3799C66.8137 50.3799 67.3298 50.085 67.6247 49.7901V45.809H68.5831V51.154L67.6247 51.3015V50.5274C67.1455 51.0066 66.5188 51.3015 65.8185 51.3015C64.7863 51.3015 64.1597 50.6011 64.1597 49.4584V45.809H65.1549Z" fill="#161D3F"/>
<path d="M71.5323 51.3384C70.8688 51.3384 70.1684 51.1541 69.6523 50.8223L69.9104 49.9376C70.3527 50.2325 71.0162 50.4537 71.5323 50.4537C72.1221 50.4537 72.6013 50.1588 72.6013 49.6796C72.6013 49.1635 71.9746 48.9792 71.348 48.7949C70.5739 48.5737 69.7629 48.2051 69.7629 47.2467C69.7629 46.2514 70.6108 45.6248 71.6798 45.6248C72.3064 45.6248 72.8962 45.7722 73.4123 46.0303L73.1542 46.9149C72.7119 46.6569 72.0852 46.5095 71.6429 46.5095C71.09 46.5095 70.6845 46.7306 70.6845 47.173C70.6845 47.689 71.2374 47.8734 71.9009 48.0208C72.675 48.242 73.5229 48.6106 73.5229 49.6059C73.5597 50.638 72.7119 51.3384 71.5323 51.3384Z" fill="#161D3F"/>
<path d="M74.7021 51.1172V45.8091L75.6605 45.6617V51.1541L74.7021 51.1172ZM75.1813 44.6295C74.739 44.6295 74.5547 44.2978 74.5547 43.9292C74.5547 43.5605 74.739 43.2288 75.1813 43.2288C75.6237 43.2288 75.808 43.5605 75.808 43.9292C75.808 44.3346 75.5868 44.6295 75.1813 44.6295Z" fill="#161D3F"/>
<path d="M80.6369 51.1172V47.7628C80.6369 46.8412 80.3051 46.5463 79.531 46.5463C78.9781 46.5463 78.4252 46.8412 78.1303 47.1361V51.1172H77.1719V45.8091L78.1303 45.6616V46.4726C78.6095 45.9934 79.2361 45.6616 79.8628 45.6616C80.9318 45.6616 81.5953 46.362 81.5953 47.5047V51.1541H80.6369V51.1172Z" fill="#161D3F"/>
<path d="M86.4613 47.8734V47.7996C86.4613 47.0255 86.0927 46.4726 85.2449 46.4726C84.3233 46.4726 83.8073 47.173 83.7336 47.8734H86.4613ZM83.6967 48.6475C83.7336 49.6796 84.4339 50.4537 85.4661 50.4537C86.019 50.4537 86.6457 50.3063 87.0511 50.0114L87.2354 50.896C86.7562 51.1909 86.1296 51.3384 85.4292 51.3384C83.8073 51.3384 82.7383 50.1957 82.7383 48.5737C82.7383 46.8412 83.881 45.6616 85.3555 45.6616C86.6457 45.6616 87.3829 46.4726 87.3829 47.7259C87.3829 48.0208 87.346 48.3526 87.2723 48.5737L83.6967 48.6106V48.6475Z" fill="#161D3F"/>
<path d="M89.9266 51.3384C89.2631 51.3384 88.5627 51.1541 88.0835 50.8223L88.3415 49.9376C88.7839 50.2325 89.4474 50.4537 89.9635 50.4537C90.5532 50.4537 91.0325 50.1588 91.0325 49.6796C91.0325 49.1635 90.4058 48.9792 89.7791 48.7949C89.0419 48.5737 88.1941 48.2051 88.1941 47.2467C88.1941 46.2514 89.0419 45.6248 90.1109 45.6248C90.7376 45.6248 91.3274 45.7722 91.8434 46.0303L91.5854 46.9149C91.143 46.6569 90.5164 46.5095 90.074 46.5095C89.4843 46.5095 89.1156 46.7306 89.1156 47.173C89.1156 47.689 89.6686 47.8734 90.3321 48.0208C91.1062 48.242 91.954 48.6106 91.954 49.6059C91.9171 50.638 91.0693 51.3384 89.9266 51.3384Z" fill="#161D3F"/>
<path d="M94.534 51.3384C93.8705 51.3384 93.1701 51.1541 92.6909 50.8223L92.949 49.9376C93.3913 50.2325 94.0548 50.4537 94.5709 50.4537C95.1607 50.4537 95.6399 50.1588 95.6399 49.6796C95.6399 49.1635 95.0132 48.9792 94.3866 48.7949C93.6125 48.5737 92.8015 48.2051 92.8015 47.2467C92.8015 46.2514 93.6493 45.6248 94.7183 45.6248C95.345 45.6248 95.9348 45.7722 96.4508 46.0303L96.1928 46.9149C95.7505 46.6569 95.1238 46.5095 94.6815 46.5095C94.0917 46.5095 93.723 46.7306 93.723 47.173C93.723 47.689 94.276 47.8734 94.9395 48.0208C95.7136 48.242 96.5614 48.6106 96.5614 49.6059C96.5246 50.638 95.6767 51.3384 94.534 51.3384Z" fill="#161D3F"/>
<path d="M63.2012 55.5038H67.6983V56.4254H64.1964V58.7846H67.0717V59.7061H64.1964V62.7288H63.2012V55.5038Z" fill="#161D3F"/>
<path d="M68.5832 62.7287V57.4205L69.5417 57.2731V62.7655L68.5832 62.7287ZM69.0256 56.241C68.5832 56.241 68.3989 55.9092 68.3989 55.5406C68.3989 55.172 68.5832 54.8402 69.0256 54.8402C69.4679 54.8402 69.6522 55.172 69.6522 55.5406C69.6522 55.9092 69.4679 56.241 69.0256 56.241Z" fill="#161D3F"/>
<path d="M74.3337 62.7288V59.3743C74.3337 58.4528 74.0019 58.1579 73.2278 58.1579C72.6749 58.1579 72.122 58.4528 71.8271 58.7477V62.7288H70.8687V57.4206L71.8271 57.2732V58.0841C72.3063 57.6049 72.9329 57.2732 73.5596 57.2732C74.6286 57.2732 75.2921 57.9736 75.2921 59.1163V62.7656L74.3337 62.7288Z" fill="#161D3F"/>
<path d="M79.3103 60.1115C77.7252 60.3327 77.1354 60.6276 77.1354 61.2911C77.1354 61.7703 77.504 62.1021 78.0938 62.1021C78.573 62.1021 79.0154 61.8441 79.3103 61.5123V60.1115ZM79.3103 62.1758C78.9048 62.655 78.4256 62.9131 77.8358 62.9131C76.8405 62.9131 76.1401 62.2495 76.1401 61.4017C76.1401 60.4433 76.8405 59.5955 79.3103 59.4849V59.3374C79.3103 58.4896 78.9785 58.121 78.1307 58.121C77.5778 58.121 76.9142 58.379 76.3982 58.7108L76.2139 57.863C76.6931 57.5312 77.4672 57.2363 78.2044 57.2363C79.642 57.2363 80.2687 57.863 80.2687 59.3006V61.5492C80.2687 61.9915 80.3424 62.0652 80.7848 62.0652L80.711 62.8762C79.8632 62.9499 79.4577 62.655 79.3103 62.1758Z" fill="#161D3F"/>
<path d="M84.987 62.7288V59.3743C84.987 58.4528 84.6552 58.1579 83.8811 58.1579C83.3282 58.1579 82.7753 58.4528 82.4804 58.7477V62.7288H81.522V57.4206L82.4804 57.2732V58.0841C82.9596 57.6049 83.5862 57.2732 84.2129 57.2732C85.2819 57.2732 85.9454 57.9736 85.9454 59.1163V62.7656L84.987 62.7288Z" fill="#161D3F"/>
<path d="M89.521 62.9131C87.8254 62.9131 86.9038 61.7703 86.9038 60.0747C86.9038 58.379 88.0465 57.2363 89.5947 57.2363C90.2951 57.2363 90.8112 57.3838 91.3272 57.6786L91.0692 58.5633C90.6269 58.2684 90.1108 58.121 89.5947 58.121C88.4889 58.121 87.8991 58.8582 87.8991 60.0747C87.8991 61.2911 88.5626 62.0284 89.5947 62.0284C90.1477 62.0284 90.7006 61.8809 91.1061 61.586L91.2904 62.4707C90.8112 62.7656 90.1845 62.9131 89.521 62.9131Z" fill="#161D3F"/>
<path d="M95.6029 59.4849V59.4112C95.6029 58.6371 95.2343 58.0842 94.3865 58.0842C93.5018 58.0842 92.9489 58.8214 92.8752 59.5218L95.6029 59.4849ZM92.8383 60.259C92.8752 61.2912 93.5755 62.0653 94.6077 62.0653C95.1606 62.0653 95.7504 61.9178 96.1927 61.6229L96.3771 62.5076C95.8978 62.8025 95.2712 62.9499 94.5708 62.9499C92.9857 62.9499 91.8799 61.8072 91.8799 60.1853C91.8799 58.4528 93.0226 57.3101 94.4971 57.3101C95.7873 57.3101 96.5245 58.121 96.5245 59.3743C96.5245 59.6692 96.4876 60.001 96.4139 60.2222L92.8383 60.259Z" fill="#161D3F"/>
<path d="M147.173 68H107.473V29H147.173V68Z" stroke="#FEFEFE" stroke-width="1.89" stroke-miterlimit="10"/>
</svg>
