<svg width="26" height="19" viewBox="0 0 26 19" fill="none" xmlns="http://www.w3.org/2000/svg">
<rect width="26" height="19" rx="2" fill="white"/>
<mask id="mask0" mask-type="alpha" maskUnits="userSpaceOnUse" x="0" y="0" width="26" height="19">
<rect width="26" height="19" rx="2" fill="white"/>
</mask>
<g mask="url(#mask0)">
<path fill-rule="evenodd" clip-rule="evenodd" d="M26 0H0V1.26667H26V0ZM26 2.53338H0V3.80005H26V2.53338ZM0 5.0666H26V6.33326H0V5.0666ZM26 7.6H0V8.86667H26V7.6ZM0 10.1333H26V11.3999H0V10.1333ZM26 12.6666H0V13.9333H26V12.6666ZM0 15.2H26V16.4667H0V15.2ZM26 17.7333H0V19H26V17.7333Z" fill="#D02F44"/>
<rect width="11.1429" height="8.86667" fill="#46467F"/>
<g filter="url(#filter0_d)">
<path fill-rule="evenodd" clip-rule="evenodd" d="M2.47638 1.89993C2.47638 2.24972 2.19922 2.53327 1.85733 2.53327C1.51544 2.53327 1.23828 2.24972 1.23828 1.89993C1.23828 1.55015 1.51544 1.2666 1.85733 1.2666C2.19922 1.2666 2.47638 1.55015 2.47638 1.89993ZM4.95248 1.89993C4.95248 2.24972 4.67533 2.53327 4.33343 2.53327C3.99154 2.53327 3.71439 2.24972 3.71439 1.89993C3.71439 1.55015 3.99154 1.2666 4.33343 1.2666C4.67533 1.2666 4.95248 1.55015 4.95248 1.89993ZM6.80974 2.53327C7.15163 2.53327 7.42879 2.24972 7.42879 1.89993C7.42879 1.55015 7.15163 1.2666 6.80974 1.2666C6.46785 1.2666 6.19069 1.55015 6.19069 1.89993C6.19069 2.24972 6.46785 2.53327 6.80974 2.53327ZM9.90494 1.89993C9.90494 2.24972 9.62779 2.53327 9.2859 2.53327C8.94401 2.53327 8.66685 2.24972 8.66685 1.89993C8.66685 1.55015 8.94401 1.2666 9.2859 1.2666C9.62779 1.2666 9.90494 1.55015 9.90494 1.89993ZM3.09543 3.79994C3.43732 3.79994 3.71448 3.51639 3.71448 3.16661C3.71448 2.81683 3.43732 2.53328 3.09543 2.53328C2.75354 2.53328 2.47638 2.81683 2.47638 3.16661C2.47638 3.51639 2.75354 3.79994 3.09543 3.79994ZM6.1907 3.16661C6.1907 3.51639 5.91354 3.79994 5.57165 3.79994C5.22976 3.79994 4.95261 3.51639 4.95261 3.16661C4.95261 2.81683 5.22976 2.53328 5.57165 2.53328C5.91354 2.53328 6.1907 2.81683 6.1907 3.16661ZM8.04772 3.79994C8.38961 3.79994 8.66677 3.51639 8.66677 3.16661C8.66677 2.81683 8.38961 2.53328 8.04772 2.53328C7.70583 2.53328 7.42867 2.81683 7.42867 3.16661C7.42867 3.51639 7.70583 3.79994 8.04772 3.79994ZM9.90494 4.43332C9.90494 4.7831 9.62779 5.06665 9.2859 5.06665C8.94401 5.06665 8.66685 4.7831 8.66685 4.43332C8.66685 4.08354 8.94401 3.79998 9.2859 3.79998C9.62779 3.79998 9.90494 4.08354 9.90494 4.43332ZM6.80974 5.06665C7.15163 5.06665 7.42879 4.7831 7.42879 4.43332C7.42879 4.08354 7.15163 3.79998 6.80974 3.79998C6.46785 3.79998 6.19069 4.08354 6.19069 4.43332C6.19069 4.7831 6.46785 5.06665 6.80974 5.06665ZM4.95248 4.43332C4.95248 4.7831 4.67533 5.06665 4.33343 5.06665C3.99154 5.06665 3.71439 4.7831 3.71439 4.43332C3.71439 4.08354 3.99154 3.79998 4.33343 3.79998C4.67533 3.79998 4.95248 4.08354 4.95248 4.43332ZM1.85733 5.06665C2.19922 5.06665 2.47638 4.7831 2.47638 4.43332C2.47638 4.08354 2.19922 3.79998 1.85733 3.79998C1.51544 3.79998 1.23828 4.08354 1.23828 4.43332C1.23828 4.7831 1.51544 5.06665 1.85733 5.06665ZM3.71448 5.69991C3.71448 6.04969 3.43732 6.33324 3.09543 6.33324C2.75354 6.33324 2.47638 6.04969 2.47638 5.69991C2.47638 5.35013 2.75354 5.06657 3.09543 5.06657C3.43732 5.06657 3.71448 5.35013 3.71448 5.69991ZM5.57165 6.33324C5.91354 6.33324 6.1907 6.04969 6.1907 5.69991C6.1907 5.35013 5.91354 5.06657 5.57165 5.06657C5.22976 5.06657 4.95261 5.35013 4.95261 5.69991C4.95261 6.04969 5.22976 6.33324 5.57165 6.33324ZM8.66677 5.69991C8.66677 6.04969 8.38961 6.33324 8.04772 6.33324C7.70583 6.33324 7.42867 6.04969 7.42867 5.69991C7.42867 5.35013 7.70583 5.06657 8.04772 5.06657C8.38961 5.06657 8.66677 5.35013 8.66677 5.69991ZM9.2859 7.59987C9.62779 7.59987 9.90494 7.31631 9.90494 6.96653C9.90494 6.61675 9.62779 6.3332 9.2859 6.3332C8.94401 6.3332 8.66685 6.61675 8.66685 6.96653C8.66685 7.31631 8.94401 7.59987 9.2859 7.59987ZM7.42879 6.96653C7.42879 7.31631 7.15163 7.59987 6.80974 7.59987C6.46785 7.59987 6.19069 7.31631 6.19069 6.96653C6.19069 6.61675 6.46785 6.3332 6.80974 6.3332C7.15163 6.3332 7.42879 6.61675 7.42879 6.96653ZM4.33343 7.59987C4.67533 7.59987 4.95248 7.31631 4.95248 6.96653C4.95248 6.61675 4.67533 6.3332 4.33343 6.3332C3.99154 6.3332 3.71439 6.61675 3.71439 6.96653C3.71439 7.31631 3.99154 7.59987 4.33343 7.59987ZM2.47638 6.96653C2.47638 7.31631 2.19922 7.59987 1.85733 7.59987C1.51544 7.59987 1.23828 7.31631 1.23828 6.96653C1.23828 6.61675 1.51544 6.3332 1.85733 6.3332C2.19922 6.3332 2.47638 6.61675 2.47638 6.96653Z" fill="url(#paint0_linear)"/>
</g>
</g>
<defs>
<filter id="filter0_d" x="1.23828" y="1.2666" width="8.66666" height="7.33327" filterUnits="userSpaceOnUse" color-interpolation-filters="sRGB">
<feFlood flood-opacity="0" result="BackgroundImageFix"/>
<feColorMatrix in="SourceAlpha" type="matrix" values="0 0 0 0 0 0 0 0 0 0 0 0 0 0 0 0 0 0 127 0"/>
<feOffset dy="1"/>
<feColorMatrix type="matrix" values="0 0 0 0 0 0 0 0 0 0 0 0 0 0 0 0 0 0 0.06 0"/>
<feBlend mode="normal" in2="BackgroundImageFix" result="effect1_dropShadow"/>
<feBlend mode="normal" in="SourceGraphic" in2="effect1_dropShadow" result="shape"/>
</filter>
<linearGradient id="paint0_linear" x1="1.23828" y1="1.2666" x2="1.23828" y2="7.59993" gradientUnits="userSpaceOnUse">
<stop stop-color="white"/>
<stop offset="1" stop-color="#F0F0F0"/>
</linearGradient>
</defs>
</svg>
