<svg width="14" height="19" viewBox="0 0 14 19" fill="none" xmlns="http://www.w3.org/2000/svg">
<path fill-rule="evenodd" clip-rule="evenodd" d="M7.01761 0C3.83132 0 1.2478 2.52564 1.2478 5.64127C1.2478 6.4458 1.42371 7.211 1.73331 7.9035L7.11612 16.6294L12.3019 7.9035C12.6208 7.1934 12.7856 6.42185 12.7851 5.64127C12.7851 2.52564 10.2039 0 7.01761 0ZM7.01761 9.64248C6.54144 9.6417 6.07009 9.54554 5.63051 9.35951C5.19092 9.17348 4.79172 8.90121 4.45572 8.55828C4.11973 8.21536 3.85353 7.80849 3.67234 7.36094C3.49115 6.91338 3.39852 6.43392 3.39975 5.94997C3.39883 5.46616 3.49167 4.9869 3.67299 4.53956C3.8543 4.09221 4.12053 3.68555 4.45648 3.34277C4.79243 3 5.19152 2.72784 5.63096 2.54183C6.0704 2.35581 6.54158 2.25959 7.01761 2.25865C7.97901 2.26086 8.90021 2.6509 9.57881 3.34305C10.2574 4.0352 10.6379 4.97285 10.6366 5.94997C10.6382 6.92729 10.2579 7.86525 9.57923 8.55766C8.90059 9.25007 7.97921 9.64027 7.01761 9.64248ZM9.33609 5.90229C9.33671 6.21246 9.27719 6.51972 9.16093 6.80651C9.04468 7.09329 8.87397 7.35399 8.65855 7.5737C8.44314 7.79341 8.18724 7.96784 7.90548 8.087C7.62372 8.20617 7.32162 8.26775 7.01644 8.26822C6.40039 8.26664 5.81016 8.01656 5.37543 7.57293C4.9407 7.1293 4.69703 6.52841 4.69796 5.90229C4.6975 5.59238 4.7571 5.28541 4.87337 4.9989C4.98963 4.7124 5.16028 4.45197 5.37557 4.2325C5.59086 4.01302 5.84658 3.8388 6.12812 3.71976C6.40966 3.60073 6.71151 3.53922 7.01644 3.53875C8.29706 3.53875 9.33609 4.59835 9.33609 5.90229Z" fill="#D5721B"/>
<path fill-rule="evenodd" clip-rule="evenodd" d="M3.85006 14.0547C1.83649 14.4885 1.00033 15.0582 1.00033 15.6983C1.00033 16.6149 3.1476 17.8783 7 17.8783C10.8524 17.8783 12.9997 16.6149 12.9997 15.6983C12.9997 15.0606 12.1694 14.5076 10.1839 14.0547V13.0773C12.3711 13.5135 14 14.3896 14 15.6983C14 17.5863 10.3927 18.9999 7 18.9999C3.6073 18.9999 0 17.5863 0 15.6983C0 14.3872 1.63947 13.4945 3.83833 13.0737L3.85006 14.0547Z" fill="#D5721B"/>
</svg>
