<svg width="160" height="90" viewBox="0 0 160 90" fill="none" xmlns="http://www.w3.org/2000/svg">
<rect width="160" height="90" fill="white"/>
<path fill-rule="evenodd" clip-rule="evenodd" d="M6 70H54.8319V21H6V70Z" fill="#C80000"/>
<path fill-rule="evenodd" clip-rule="evenodd" d="M30.296 48.0233H27.6995C27.6437 48.0233 27.5941 48.0517 27.5656 48.0946C27.2442 48.6502 26.5312 49.5505 25.1782 49.5505C23.4079 49.5505 22.3135 47.9985 22.3135 46.3893C22.3135 44.8815 23.336 43.2864 25.1649 43.2864C26.4184 43.2864 27.188 44.0609 27.5747 44.7797C27.5793 44.7888 27.5855 44.7991 27.5904 44.809C27.6197 44.8506 27.6685 44.8787 27.7243 44.8787H30.3253C30.4129 44.8787 30.4848 44.8065 30.4848 44.7187C30.4848 44.7047 30.4827 44.6915 30.4794 44.6783C30.4773 44.6705 30.4749 44.6631 30.4724 44.6561C29.9589 43.0188 28.2101 40.9022 25.1782 40.9022C21.6947 40.9022 19.5923 43.6882 19.5923 46.4042C19.5923 49.2768 21.8674 51.9346 25.2075 51.9346C27.6111 51.9346 29.6726 50.4824 30.4422 48.2475C30.4439 48.243 30.4455 48.2389 30.4472 48.2343C30.4525 48.2182 30.4554 48.2018 30.4554 48.184C30.4554 48.0958 30.3827 48.0233 30.296 48.0233Z" fill="white"/>
<path fill-rule="evenodd" clip-rule="evenodd" d="M41.8502 48.0233H39.2537C39.1979 48.0233 39.1483 48.0517 39.1198 48.0946C38.7984 48.6502 38.0854 49.5505 36.7332 49.5505C34.9621 49.5505 33.8677 47.9985 33.8677 46.3893C33.8677 44.8815 34.8902 43.2864 36.7191 43.2864C37.9726 43.2864 38.7422 44.0609 39.1289 44.7797C39.1343 44.7888 39.1397 44.7991 39.145 44.809C39.1739 44.8506 39.2227 44.8787 39.2785 44.8787H41.8795C41.9671 44.8787 42.039 44.8065 42.039 44.7187C42.039 44.7047 42.0377 44.6915 42.0336 44.6783C42.0315 44.6705 42.0291 44.6631 42.0266 44.6561C41.5131 43.0188 39.7647 40.9022 36.7332 40.9022C33.2489 40.9022 31.1465 43.6882 31.1465 46.4042C31.1465 49.2768 33.4216 51.9346 36.7617 51.9346C39.1661 51.9346 41.2268 50.4824 41.9964 48.2475C41.9981 48.243 41.9997 48.2389 42.0005 48.2343C42.0059 48.2182 42.0096 48.2018 42.0096 48.184C42.0096 48.0958 41.9378 48.0233 41.8502 48.0233Z" fill="white"/>
<path fill-rule="evenodd" clip-rule="evenodd" d="M15.5883 47.9289L15.5821 47.9104L14.6022 44.6297C14.5906 44.5873 14.5526 44.5564 14.5068 44.5564C14.4622 44.5564 14.425 44.5848 14.4146 44.6264L13.4281 47.9149L13.424 47.9281C13.4223 47.9343 13.4219 47.9405 13.4219 47.9466C13.4219 47.9994 13.4645 48.041 13.5169 48.041H15.4946C15.5478 48.041 15.59 47.9994 15.59 47.9466C15.59 47.9405 15.5892 47.9351 15.5883 47.9289ZM16.3762 50.2945C16.3522 50.2368 16.2948 50.1956 16.2274 50.1956H12.7555C12.689 50.1956 12.6316 50.2368 12.6068 50.2945L12.1172 51.6349L12.1164 51.6358C12.0925 51.6935 12.035 51.733 11.9702 51.733H9.39598C9.30716 51.733 9.23486 51.6617 9.23486 51.5735C9.23486 51.5529 9.23899 51.5335 9.24643 51.5158L9.24891 51.5088L13.3922 41.2081L13.3971 41.1966C13.4223 41.1417 13.4781 41.103 13.5434 41.103H15.4731C15.5355 41.103 15.5908 41.1401 15.616 41.1933L15.6247 41.2135L19.7208 51.5034L19.7295 51.5249C19.7349 51.5397 19.7378 51.5558 19.7378 51.5735C19.7378 51.6617 19.6659 51.733 19.5783 51.733H16.9773C16.9099 51.733 16.8533 51.6935 16.8285 51.6362L16.8269 51.6325L16.3762 50.2945Z" fill="white"/>
<path fill-rule="evenodd" clip-rule="evenodd" d="M48.3227 47.9289L48.3165 47.9104L47.3366 44.6297C47.325 44.5873 47.287 44.5564 47.2407 44.5564C47.1965 44.5564 47.1593 44.5848 47.149 44.6264L46.1625 47.9149L46.1583 47.9281C46.1567 47.9343 46.1563 47.9405 46.1563 47.9466C46.1563 47.9994 46.1988 48.041 46.2513 48.041H48.2298C48.2822 48.041 48.3244 47.9994 48.3244 47.9466C48.3244 47.9405 48.3235 47.9351 48.3227 47.9289ZM49.1105 50.2945C49.0866 50.2368 49.0292 50.1956 48.9618 50.1956H45.4899C45.4234 50.1956 45.366 50.2368 45.3412 50.2945L44.8516 51.6349L44.8508 51.6358C44.826 51.6935 44.7694 51.733 44.7037 51.733H42.1304C42.0415 51.733 41.9692 51.6617 41.9692 51.5735C41.9692 51.5529 41.9734 51.5335 41.9808 51.5158L41.9833 51.5088L46.1265 41.2081L46.1315 41.1966C46.1567 41.1417 46.2125 41.103 46.2777 41.103H48.2074C48.2698 41.103 48.3252 41.1401 48.3504 41.1933L48.3591 41.2135L52.456 51.5034L52.4639 51.5249C52.4693 51.5397 52.4721 51.5558 52.4721 51.5735C52.4721 51.6617 52.4003 51.733 52.3127 51.733H49.7116C49.6443 51.733 49.5869 51.6935 49.5629 51.6362L49.5613 51.6325L49.1105 50.2945Z" fill="white"/>
<path fill-rule="evenodd" clip-rule="evenodd" d="M68.708 50.6677H69.7169L69.7723 43.1752H67.4889L67.4327 44.601H66.0322L66.088 42.0289H74.9847L75.0409 44.601H73.6391L73.5833 43.1752H71.3421L71.2859 50.6677H72.4208V51.814H68.708V50.6677Z" fill="#231F20"/>
<path fill-rule="evenodd" clip-rule="evenodd" d="M75.6677 50.6677H76.4943L76.5505 42.2107H75.4995V41.0644H78.1753L78.134 44.545C78.134 45.0342 78.0502 45.5375 77.9518 46.1529H77.9799C78.2737 45.2164 79.0859 44.3776 80.5438 44.3776C82.2529 44.3776 83.0796 45.4539 83.0796 47.1871C83.0796 48.3474 83.0374 49.5082 83.0234 50.6677H83.976V51.814H80.6277V50.6677H81.4543C81.4684 49.605 81.5105 48.5296 81.5105 47.467C81.5105 46.4464 81.0338 45.6917 80.0389 45.6917C78.9607 45.6917 78.1472 46.5441 78.12 47.8998L78.0642 50.6677H79.0441V51.814H75.6677V50.6677Z" fill="#231F20"/>
<path fill-rule="evenodd" clip-rule="evenodd" d="M86.6468 40.8966C87.25 40.8966 87.7259 41.3718 87.7259 41.9732C87.7259 42.5742 87.25 43.0494 86.6468 43.0494C86.0445 43.0494 85.5686 42.5742 85.5686 41.9732C85.5686 41.3718 86.0445 40.8966 86.6468 40.8966ZM84.8815 50.6676H85.8342L85.8623 45.6916H84.7563V44.5453H87.4322L87.4041 50.6676H88.384V51.8143H84.8815V50.6676Z" fill="#231F20"/>
<path fill-rule="evenodd" clip-rule="evenodd" d="M89.4181 50.6677H90.2448L90.2729 45.6917H89.25V44.545H91.8424C91.8424 45.0342 91.8006 45.5375 91.7023 46.1529H91.7304C92.0241 45.2164 92.8363 44.3776 94.2943 44.3776C96.0034 44.3776 96.83 45.4538 96.83 47.1871C96.83 48.3474 96.7879 49.5082 96.7738 50.6677H97.7265V51.814H94.3781V50.6677H95.2048C95.2188 49.605 95.261 48.5296 95.261 47.467C95.261 46.4464 94.7842 45.6917 93.7894 45.6917C92.7112 45.6917 91.8977 46.5441 91.8705 47.8998L91.8147 50.6677H92.7946V51.814H89.4181V50.6677Z" fill="#231F20"/>
<path fill-rule="evenodd" clip-rule="evenodd" d="M98.7031 50.6677H99.5855L99.6417 42.2107H98.3672V41.0644H101.212L101.155 47.7048L103.733 45.7197V45.6917H102.696V44.545H106.115V45.6917H105.387L102.781 47.8437L105.597 50.6677H106.423V51.814H102.921V50.6677H103.775L101.155 48.1236V50.6677H102.038V51.814H98.7031V50.6677Z" fill="#231F20"/>
<path fill-rule="evenodd" clip-rule="evenodd" d="M115.834 44.2377C115.68 43.8045 115.623 43.5526 115.581 43.3432H115.553C115.511 43.5386 115.455 43.8045 115.287 44.2377L114.208 47.0056H116.8L115.834 44.2377ZM110.439 50.6675H111.28L114.839 42.0292H116.576L119.868 50.6675H120.737V51.8142H117.15V50.6675H118.047L117.206 48.2355H113.76L112.849 50.6675H113.858V51.8142H110.439V50.6675Z" fill="#231F20"/>
<path fill-rule="evenodd" clip-rule="evenodd" d="M121.572 50.6677H122.399L122.454 42.2107H121.404V41.0644H124.08L124.038 44.545C124.038 45.0342 123.954 45.5375 123.856 46.1529H123.884C124.178 45.2164 124.99 44.3776 126.448 44.3776C128.157 44.3776 128.984 45.4539 128.984 47.1871C128.984 48.3474 128.942 49.5082 128.928 50.6677H129.88V51.814H126.532V50.6677H127.359C127.373 49.605 127.415 48.5296 127.415 47.467C127.415 46.4464 126.938 45.6917 125.943 45.6917C124.865 45.6917 124.052 46.5441 124.024 47.8998L123.968 50.6677H124.948V51.814H121.572V50.6677Z" fill="#231F20"/>
<path fill-rule="evenodd" clip-rule="evenodd" d="M135.957 47.3689V47.2292C135.957 46.6282 135.564 45.5235 134.233 45.5235C132.902 45.5235 132.454 46.4885 132.398 47.3689H135.957ZM137.147 51.4785C136.643 51.6883 135.676 51.9822 134.583 51.9822C132.174 51.9682 130.744 50.4859 130.744 48.2077C130.744 46.0549 131.963 44.3776 134.316 44.3776C136.503 44.3776 137.609 45.9712 137.609 48.2218V48.4316H132.398C132.412 49.8429 133.448 50.7518 134.892 50.7518C135.802 50.7518 136.601 50.5135 137.231 50.1929L137.147 51.4785Z" fill="#231F20"/>
<path fill-rule="evenodd" clip-rule="evenodd" d="M141.57 50.7516C142.79 50.7516 143.448 49.8291 143.448 48.9062V48.6136C141.823 48.6276 140.407 48.6964 140.407 49.7731C140.407 50.3188 140.828 50.7516 141.57 50.7516ZM139.147 45.0345C139.539 44.8527 140.477 44.3775 142.033 44.3775C144.19 44.3775 144.877 45.4397 144.877 47.1589C144.877 48.3337 144.835 49.494 144.82 50.6675H145.801V51.8142H143.49C143.49 51.3534 143.532 50.7937 143.616 50.3048H143.588C143.279 51.1296 142.692 51.982 141.164 51.982C139.413 51.982 138.838 50.8217 138.838 49.8988C138.838 47.9837 140.786 47.7327 141.977 47.6767L143.476 47.5926V47.0476C143.476 46.1528 143.153 45.5238 141.865 45.5238C141.318 45.5238 140.786 45.6775 140.547 45.7756V46.8378H139.147V45.0345Z" fill="#231F20"/>
<path fill-rule="evenodd" clip-rule="evenodd" d="M152.131 45.9151C151.808 45.7197 151.317 45.6076 150.743 45.6076C149.3 45.6076 148.488 46.8656 148.488 48.2918C148.488 49.6471 149.076 50.6677 150.253 50.6677C151.513 50.6677 152.131 49.633 152.131 47.9418V45.9151ZM154.652 51.8144H152.186C152.186 51.2975 152.256 50.7517 152.326 50.3325H152.298C151.92 51.3115 151.122 51.9821 149.875 51.9821C148.123 51.9821 146.834 50.6957 146.834 48.5296C146.834 46.1249 148.263 44.3776 150.743 44.3776C151.261 44.3776 151.752 44.4473 152.186 44.5449L152.214 42.2107H150.883V41.0644H153.728L153.672 50.6677H154.652V51.8144Z" fill="#231F20"/>
</svg>
